<svg xmlns="http://www.w3.org/2000/svg" width="72" height="72" viewBox="0 0 72 72"><g id="Group_3593" data-name="Group 3593" transform="translate(6995 -11469)"><g id="Group_3591" data-name="Group 3591" transform="translate(-18486 8090)"><rect id="Rectangle_65" data-name="Rectangle 65" width="72" height="72" transform="translate(11491 3379)" fill="none"></rect><g id="Group_2342" data-name="Group 2342" transform="translate(122 5)"><path id="Path_17294" data-name="Path 17294" d="M35.6,38H38V35.6H35.6a4.8,4.8,0,0,0-4.63,3.6H28.23A4.789,4.789,0,0,0,26,36.267V32.8a6.458,6.458,0,0,0,3.6-5.793V16.4h-.061a4.145,4.145,0,0,0,.061-.6v-6a4.205,4.205,0,0,0-4.2-4.2,4.149,4.149,0,0,0-1.817.431A4.184,4.184,0,0,0,16.4,3.266c-.011-.011-.019-.026-.03-.037A4.185,4.185,0,0,0,9.415,4.937,4.169,4.169,0,0,0,3.2,8.6v5.785A6.509,6.509,0,0,0,2,18.152v7.5a5.243,5.243,0,0,0,1.588,3.742L6.8,32.507V35.6a4.8,4.8,0,0,0,0,9.6V50H9.2V45.2a4.8,4.8,0,0,0,4.63-3.6H16.57a4.8,4.8,0,0,0,4.63,3.6h2.4V50H26V44.533A4.789,4.789,0,0,0,28.23,41.6H30.97a4.8,4.8,0,0,0,4.63,3.6V42.8a2.393,2.393,0,0,1-2.066-1.2H35.6V39.2H33.534A2.393,2.393,0,0,1,35.6,38ZM23.6,9.8a1.8,1.8,0,1,1,3.6,0v6a1.8,1.8,0,0,1-3.6,0Zm-6-3.6a1.8,1.8,0,1,1,3.6,0v9.6a1.8,1.8,0,0,1-3.6,0Zm-6,2.4V6.2a1.8,1.8,0,1,1,3.6,0v5.821a4.151,4.151,0,0,0-1.8-.421H11.6Zm-6,0a1.8,1.8,0,0,1,3.6,0v3H8.552a6.5,6.5,0,0,0-2.952.711Zm5.666,33A2.393,2.393,0,0,1,9.2,42.8H6.8a2.4,2.4,0,1,1,0-4.8H9.2a2.393,2.393,0,0,1,2.066,1.2H9.2v2.4Zm14.4,0A2.393,2.393,0,0,1,23.6,42.8H21.2a2.393,2.393,0,0,1-2.066-1.2H21.2V39.2H19.134A2.393,2.393,0,0,1,21.2,38h2.4a2.393,2.393,0,0,1,2.066,1.2H23.6v2.4ZM24.419,30.862A1.2,1.2,0,0,0,23.6,32v3.6H21.2a4.8,4.8,0,0,0-4.63,3.6H13.83A4.8,4.8,0,0,0,9.2,35.6V32a1.2,1.2,0,0,0-.365-.862L5.259,27.671A2.83,2.83,0,0,1,4.4,25.652v-7.5A4.156,4.156,0,0,1,8.552,14H13.4a1.8,1.8,0,1,1,0,3.6H9.2A1.2,1.2,0,0,0,8,18.8V20a1.2,1.2,0,0,0,.127.537l1.2,2.4A1.2,1.2,0,0,0,10.4,23.6a6.007,6.007,0,0,1,6,6h2.4a8.411,8.411,0,0,0-7.642-8.366L10.542,20H13.4a4.223,4.223,0,0,0,2.971-1.227c.012-.012.02-.027.032-.039a4.179,4.179,0,0,0,6,0,4.135,4.135,0,0,0,4.8.849v7.429a4.064,4.064,0,0,1-2.781,3.854Z" transform="translate(11367 3383)" fill="#eb0000"></path><rect id="Rectangle_169" data-name="Rectangle 169" width="2.4" height="4.8" transform="translate(11403.8 3410.2)" fill="#eb0000"></rect><rect id="Rectangle_170" data-name="Rectangle 170" width="2.4" height="4.327" transform="matrix(0.832, -0.555, 0.555, 0.832, 11398.002, 3413.266)" fill="#eb0000"></rect><rect id="Rectangle_171" data-name="Rectangle 171" width="4.327" height="2.4" transform="matrix(0.555, -0.832, 0.832, 0.555, 11407.602, 3415.534)" fill="#eb0000"></rect><rect id="Rectangle_172" data-name="Rectangle 172" width="2.4" height="4.8" transform="translate(11403.8 3430.6)" fill="#eb0000"></rect><rect id="Rectangle_173" data-name="Rectangle 173" width="2.4" height="4.327" transform="matrix(0.832, -0.555, 0.555, 0.832, 11407.602, 3430.066)" fill="#eb0000"></rect><rect id="Rectangle_174" data-name="Rectangle 174" width="4.327" height="2.4" transform="matrix(0.555, -0.832, 0.832, 0.555, 11398.002, 3432.334)" fill="#eb0000"></rect><path id="Path_17295" data-name="Path 17295" d="M66.8,8.6a4.169,4.169,0,0,0-6.216-3.663,4.185,4.185,0,0,0-6.955-1.71c-.012.012-.02.027-.032.039a4.184,4.184,0,0,0-7.18,2.764A4.149,4.149,0,0,0,44.6,5.6a4.205,4.205,0,0,0-4.2,4.2v6a4.145,4.145,0,0,0,.061.6H40.4V27.008A6.459,6.459,0,0,0,44,32.8v2.267A4.789,4.789,0,0,0,41.77,38H39.03a4.8,4.8,0,0,0-4.63-3.6v2.4A2.393,2.393,0,0,1,36.466,38H34.4v2.4h2.066A2.393,2.393,0,0,1,34.4,41.6H32V44h2.4a4.8,4.8,0,0,0,4.63-3.6H41.77A4.789,4.789,0,0,0,44,43.333V50h2.4V44h2.4a4.8,4.8,0,0,0,4.63-3.6H56.17A4.8,4.8,0,0,0,60.8,44v6h2.4V44a4.8,4.8,0,0,0,0-9.6V32.507l3.212-3.114A5.243,5.243,0,0,0,68,25.652v-7.5a6.51,6.51,0,0,0-1.2-3.768Zm-6,0a1.8,1.8,0,0,1,3.6,0v3.711a6.5,6.5,0,0,0-2.952-.711H60.8Zm-6-2.4a1.8,1.8,0,0,1,3.6,0v5.4H56.6a4.151,4.151,0,0,0-1.8.421Zm-6,3.6V6.2a1.8,1.8,0,0,1,3.6,0v9.6a1.8,1.8,0,0,1-3.6,0Zm-6,0a1.8,1.8,0,0,1,3.6,0v6a1.8,1.8,0,0,1-3.6,0Zm8.066,30.6A2.393,2.393,0,0,1,48.8,41.6H46.4a2.393,2.393,0,0,1-2.066-1.2H46.4V38H44.334A2.393,2.393,0,0,1,46.4,36.8h2.4A2.393,2.393,0,0,1,50.866,38H48.8v2.4ZM65.6,39.2a2.4,2.4,0,0,1-2.4,2.4H60.8a2.393,2.393,0,0,1-2.066-1.2H60.8V38H58.734A2.393,2.393,0,0,1,60.8,36.8h2.4A2.4,2.4,0,0,1,65.6,39.2Zm0-13.548a2.83,2.83,0,0,1-.859,2.019l-3.577,3.468A1.2,1.2,0,0,0,60.8,32v2.4A4.8,4.8,0,0,0,56.17,38H53.43a4.8,4.8,0,0,0-4.63-3.6H46.4V32a1.2,1.2,0,0,0-.819-1.138A4.064,4.064,0,0,1,42.8,27.008V19.579a4.135,4.135,0,0,0,4.8-.849,4.179,4.179,0,0,0,6,0c.011.011.019.026.03.037A4.225,4.225,0,0,0,56.6,20h2.858l-.616,1.234A8.411,8.411,0,0,0,51.2,29.6h2.4a6.007,6.007,0,0,1,6-6,1.2,1.2,0,0,0,1.073-.663l1.2-2.4A1.2,1.2,0,0,0,62,20V18.8a1.2,1.2,0,0,0-1.2-1.2H56.6a1.8,1.8,0,1,1,0-3.6h4.848A4.156,4.156,0,0,1,65.6,18.152Z" transform="translate(11373 3383)" fill="#eb0000"></path></g></g></g></svg>